<svg viewBox="0 0 24 24" xmlns="http://www.w3.org/2000/svg"><path d="m19.75 6h3.5a.5.5 0 0 0 .475-.658l-1.75-5a.5.5 0 0 0 -.95 0l-1.75 5a.5.5 0 0 0 .475.658z"/><path d="m16.5 2h-12.5a.5.5 0 0 0 -.5.5v19a.5.5 0 0 0 .5.5h12.5a.5.5 0 0 0 .5-.5v-19a.5.5 0 0 0 -.5-.5zm-9 8.5v-3a.5.5 0 0 1 .5-.5h5a.5.5 0 0 1 .5.5v3a.5.5 0 0 1 -.5.5h-5a.5.5 0 0 1 -.5-.5z"/><path d="m2 2h-.5a1.5 1.5 0 0 0 -1.5 1.5v17a1.5 1.5 0 0 0 1.5 1.5h.5a.5.5 0 0 0 .5-.5v-19a.5.5 0 0 0 -.5-.5z"/><rect height="12.5" rx=".5" width="5" x="19" y="7"/><path d="m23.5 20.5h-4a.5.5 0 0 0 -.5.5v.5a2.5 2.5 0 1 0 5 0v-.5a.5.5 0 0 0 -.5-.5z"/></svg>