<svg enable-background="new 0 0 24 24" viewBox="0 0 24 24" xmlns="http://www.w3.org/2000/svg"><path d="m12 0c1.2 0 2.2 1 2.2 2.2 0 .8-.4 1.5-1.1 1.9v1.4h1.1c4.2 0 7.6 3.4 7.6 7.6h1.1c.6 0 1.1.5 1.1 1.1v3.3c0 .6-.5 1.1-1.1 1.1h-1.1v1.1c0 1.2-1 2.2-2.2 2.2h-15.2c-1.2 0-2.2-1-2.2-2.2v-1.1h-1.1c-.6 0-1.1-.5-1.1-1.1v-3.3c0-.6.5-1.1 1.1-1.1h1.1c0-4.2 3.4-7.6 7.6-7.6h1.1v-1.4c-.6-.4-1.1-1.1-1.1-1.9 0-1.2 1-2.2 2.2-2.2m-4.9 12c-1.5 0-2.7 1.2-2.7 2.7s1.2 2.7 2.7 2.7 2.7-1.2 2.7-2.7-1.2-2.7-2.7-2.7m9.8 0c-1.5 0-2.7 1.2-2.7 2.7s1.2 2.7 2.7 2.7 2.7-1.2 2.7-2.7-1.2-2.7-2.7-2.7z"/></svg>