<svg viewBox="0 0 24 24" xmlns="http://www.w3.org/2000/svg"><path d="m23.183 15.264-4.773-3.819a4.93 4.93 0 0 0 -4.21-.945.5.5 0 0 1 -.467-.133l-.819-.819a2.418 2.418 0 0 0 -2.236-.607.5.5 0 0 1 -.463-.134l-8.51-8.516a1 1 0 0 0 -1.405 1.418l8.487 8.491a.5.5 0 0 1 .133.474 2.35 2.35 0 0 0 .627 2.24l.819.819a.5.5 0 0 1 .133.467 4.926 4.926 0 0 0 .945 4.207l3.82 4.774a2.185 2.185 0 0 0 1.707.819 2.161 2.161 0 0 0 1.117-.309 16.382 16.382 0 0 0 5.6-5.6 2.186 2.186 0 0 0 -.505-2.827zm-1.359 2.041c-.052.083-.113.178-.182.283a.5.5 0 0 1 -.771.076l-2.339-2.339a.75.75 0 0 0 -1.06 1.06l2.528 2.53a.5.5 0 0 1 .008.7q-.2.207-.416.417a.5.5 0 0 1 -.7-.007l-2.508-2.508a.75.75 0 0 0 -1.061 1.061l2.312 2.311a.5.5 0 0 1 -.076.77c-.094.063-.179.118-.253.165a.5.5 0 0 1 -.658-.11l-3.641-4.554a2.955 2.955 0 0 1 4.153-4.154l4.553 3.643a.5.5 0 0 1 .111.656z"/><path d="m5.25 10.25a.5.5 0 0 1 -.5-.5.75.75 0 0 0 -1.5 0 .5.5 0 0 1 -.5.5.75.75 0 0 0 0 1.5.5.5 0 0 1 .5.5.75.75 0 0 0 1.5 0 .5.5 0 0 1 .5-.5.75.75 0 0 0 0-1.5z"/><path d="m10.25 21.25a.5.5 0 0 1 -.5-.5.75.75 0 0 0 -1.5 0 .5.5 0 0 1 -.5.5.75.75 0 0 0 0 1.5.5.5 0 0 1 .5.5.75.75 0 0 0 1.5 0 .5.5 0 0 1 .5-.5.75.75 0 0 0 0-1.5z"/><path d="m12.25 4h.75a.5.5 0 0 1 .5.5v.75a.75.75 0 0 0 1.5 0v-.75a.5.5 0 0 1 .5-.5h.75a.75.75 0 0 0 0-1.5h-.75a.5.5 0 0 1 -.5-.5v-.75a.75.75 0 0 0 -1.5 0v.75a.5.5 0 0 1 -.5.5h-.75a.75.75 0 0 0 0 1.5z"/><circle cx="3.5" cy="18.5" r="1"/><circle cx="21.5" cy="6" r="1"/></svg>