<svg enable-background="new 0 0 18 18" viewBox="0 0 18 18" xmlns="http://www.w3.org/2000/svg"><path d="m0 0h18v18h-18z" fill="#fff"/><path d="m0 0h18v18h-18z" fill-opacity=".33"/><g fill-opacity=".5"><path d="m14.9 15.2-3.3-.6s0-.9 0-1.1-.8-.1-.8-.1v-.3c.1 0 .2-.1.2-.1s.1-.1.2-.2h.6v.3l.4-.2v-1.1l-.4-.4.5-.1.2-1.1h.3l.2-1.8-.3-.2.1-.2s.1-.9-.5-2.3c-.7-1.7-3.1-2.5-3.1-2.5h-.4c-.4.1-2.4 1-3.1 2.5-.6 1.3-.4 2.2-.4 2.2l.1.2-.4.3.3 1.9h.3l.2 1.1.5.1-.4.4v1.1l.4.2v-.3h.6c0 .1 0 .1.1.2 0 0 .1.1.2.1v.3s-.8-.1-.8.1v1.1l-3.3.6s-.9 1-.8 2.8h13.5c0-1.9-.9-2.9-.9-2.9zm-7.1-5.5c-.5 0-.8-.4-.8-.8-.1-.5.3-.9.8-.9s.8.4.8.8c0 .5-.4.9-.8.9zm1.8 2.2h-1.2v-.4h1.1zm.6-2.2c-.5 0-.8-.4-.8-.8 0-.5.4-.9.8-.9.5 0 .8.4.8.8.1.5-.3.9-.8.9z"/><path d="m7.8 8.6c-.1 0-.2.1-.2.2s.1.2.2.2c.1.1.2 0 .2-.2 0-.1-.1-.2-.2-.2z"/><path d="m10.2 8.6c-.1 0-.2.1-.2.2s.1.2.2.2.2-.1.2-.2c.1-.1 0-.2-.2-.2z"/></g></svg>