<svg viewBox="0 0 24 24" xmlns="http://www.w3.org/2000/svg"><path d="m22.667 16.938a1.212 1.212 0 0 0 -1.212 1.212v1.855a1.572 1.572 0 0 1 -1.571 1.57h-15.768a1.572 1.572 0 0 1 -1.571-1.57v-1.855a1.212 1.212 0 0 0 -2.424 0v1.855a4 4 0 0 0 3.995 4h15.768a4 4 0 0 0 4-4v-1.855a1.212 1.212 0 0 0 -1.217-1.212z"/><path d="m12 0a1.939 1.939 0 0 0 -1.939 1.939v9.066a.25.25 0 0 1 -.25.25h-2.659a.97.97 0 0 0 -.732 1.606l4.848 5.576a.969.969 0 0 0 1.464 0l4.848-5.576a.97.97 0 0 0 -.732-1.606h-2.659a.25.25 0 0 1 -.25-.25v-9.066a1.939 1.939 0 0 0 -1.939-1.939z"/></svg>