<svg enable-background="new 0 0 24 24" viewBox="0 0 24 24" xmlns="http://www.w3.org/2000/svg"><path d="m5.1.6c1.4 0 2.6 1.2 2.6 2.6s-1.1 2.5-2.6 2.5-2.5-1.1-2.5-2.5 1.1-2.6 2.5-2.6m0 6c2.8 0 5.1 1.2 5.1 2.6v1.1h-10.2v-1.1c0-1.5 2.3-2.6 5.1-2.6z"/><path d="m18.9.6c1.4 0 2.6 1.2 2.6 2.6s-1.2 2.6-2.6 2.6-2.6-1.2-2.6-2.6 1.1-2.6 2.6-2.6m0 6c2.8 0 5.1 1.2 5.1 2.6v1.1h-10.3v-1.1c0-1.5 2.3-2.6 5.2-2.6z"/><path d="m5.1 14.3c1.4 0 2.6 1.2 2.6 2.6s-1.2 2.6-2.6 2.6-2.6-1.2-2.6-2.6 1.2-2.6 2.6-2.6m0 6c2.8 0 5.1 1.2 5.1 2.6v1.1h-10.2v-1.1c0-1.5 2.3-2.6 5.1-2.6z"/><path d="m18.9 14.3c1.4 0 2.6 1.2 2.6 2.6s-1.2 2.6-2.6 2.6-2.6-1.2-2.6-2.6 1.1-2.6 2.6-2.6m0 6c2.8 0 5.1 1.2 5.1 2.6v1.1h-10.3v-1.1c0-1.5 2.3-2.6 5.2-2.6z"/></svg>