<svg enable-background="new 0 0 200 276" viewBox="0 0 200 276" xmlns="http://www.w3.org/2000/svg"><g fill="none" stroke="#bebcbb" stroke-miterlimit="10" stroke-width="2"><path d="m135.3 268.8h-69.5c-5.1 0-9.3-4.2-9.3-9.3s4.2-9.3 9.3-9.3h69.5c5.1 0 9.3 4.2 9.3 9.3-0 5.2-4.2 9.3-9.3 9.3z"/><ellipse cx="16.7" cy="259.5" rx="9.3" ry="9.3" transform="matrix(.9999 -.01514628 .01514628 .9999 -3.9285 .2827)"/><circle cx="182.7" cy="259.5" r="9.3"/></g><path d="m149.9 2-16.6 104.7c0 4-3.3 7.3-7.3 7.3h-49.8c-4 0-7.3-3.3-7.3-7.3l16.7-104.7z" fill="#222"/><circle cx="100" cy="180.3" fill="none" r="5.6"/><path d="m119.2 138.5c11.1 0 20.1-9 20.1-20.1s-9-20.1-20.1-20.1h-38.4c-11.1 0-20.1 9-20.1 20.1s9 20.1 20.1 20.1h5.1c.6-1.5 2-2.5 3.7-2.5h20.9c1.7 0 3.1 1 3.7 2.5z" fill="none"/><path d="m114.4 147.9v-1.2h4.8c15.6 0 28.4-12.8 28.4-28.4s-12.8-28.4-28.4-28.4h-38.4c-15.6 0-28.4 12.8-28.4 28.4s12.8 28.4 28.4 28.4h4.8v1.2c0 2 1.5 3.6 3.3 3.9l-.7 2.6h-.2c-2.5 0-4.6 2.1-4.6 4.6 0 1.8 1.1 3.4 2.6 4.1l-7.7 31c-.2.9.4 1.9 1.4 2.1h.3 2.2l-7.7 30.9h11.8l6.7-26.6h12.2c5.1 8.7 14.5 26.6 14.7 37.2.1 4.1-1.2 7.4-3.9 10.2-4.2 4.3-10.6 5.9-13.7 5.9-6.5 0-10.8-1.9-13.6-4.6h-13.5c2.3 5.5 5.9 8.9 9.1 11.1 6.6 4.4 14.1 5 18 5 6.3 0 15.5-2.9 21.8-9.3 4.8-4.9 7.3-11.3 7.2-18.4-.2-9.1-4.9-20.8-9.4-30.2h14.4c5.1 0 9.3-4.2 9.3-9.3s-4.2-9.3-9.3-9.3h-16l-6.1-25.9c1.4-.8 2.3-2.3 2.3-3.9 0-2.4-1.9-4.4-4.3-4.5l-.7-2.8c1.7-.5 2.9-2 2.9-3.8zm-14.4 38c-3.1 0-5.6-2.5-5.6-5.6s2.5-5.6 5.6-5.6 5.6 2.5 5.6 5.6-2.5 5.6-5.6 5.6zm10.4-49.9h-20.8c-1.7 0-3.1 1-3.7 2.5h-5.1c-11.1 0-20.1-9-20.1-20.1s9-20.1 20.1-20.1h38.5c11.1 0 20.1 9 20.1 20.1s-9 20.1-20.1 20.1h-5.1c-.7-1.5-2.1-2.5-3.8-2.5z" fill="#777"/><path d="m84.1 236.3 2.3-9.1h-11.8l-1.9 7.7v.7c0 5.5 1 10 2.5 13.6h13.6c-3.5-3.5-4.6-8.4-4.7-12.9z" fill="#aaa"/><path d="m115.5 2 16.6 104.7c0 4-3.3 7.3-7.3 7.3h-49.7c-4 0-7.3-3.3-7.3-7.3l-16.6-104.7z" fill="#333"/></svg>