<svg viewBox="0 0 24 24" xmlns="http://www.w3.org/2000/svg"><path d="m23.3 20.691-2.1-6.83a1.486 1.486 0 0 0 -.339-.56 2.639 2.639 0 0 0 .643-1.717v-8.666a2.669 2.669 0 0 0 -2.673-2.667h-13.667a2.67 2.67 0 0 0 -2.664 2.667v8.666a2.64 2.64 0 0 0 .641 1.716 1.486 1.486 0 0 0 -.339.56l-2.074 6.755a2.167 2.167 0 0 0 1.938 3.136h18.662a2.153 2.153 0 0 0 1.844-1.028 2.1 2.1 0 0 0 .128-2.032zm-7.793.457a.5.5 0 0 1 -.4.208h-6.207a.5.5 0 0 1 -.474-.658l.6-1.8a.5.5 0 0 1 .474-.342h5a.5.5 0 0 1 .475.342l.6 1.8a.5.5 0 0 1 -.075.45zm-11.007-18.23a.667.667 0 0 1 .667-.667h13.664a.667.667 0 0 1 .666.667v8.666a.667.667 0 0 1 -.666.667h-13.667a.667.667 0 0 1 -.667-.667z"/></svg>