<svg viewBox="0 0 24 24" xmlns="http://www.w3.org/2000/svg"><path d="m17.5 9.5a7.932 7.932 0 0 1 3.992 1.077.249.249 0 0 0 .228.012.254.254 0 0 0 .143-.18 7.4 7.4 0 0 0 .137-1.409c0-4.962-4.935-9-11-9s-11 4.038-11 9a8.08 8.08 0 0 0 2.657 5.854l-1.627 4.475a.5.5 0 0 0 .662.632l5.832-2.429a13.155 13.155 0 0 0 1.7.34.25.25 0 0 0 .2-.063.254.254 0 0 0 .081-.2c0-.037 0-.075 0-.113a8.009 8.009 0 0 1 7.995-7.996z"/><path d="m17.5 11a6.5 6.5 0 1 0 6.5 6.5 6.508 6.508 0 0 0 -6.5-6.5zm.75 9a.75.75 0 0 1 -1.5 0v-1.5a.25.25 0 0 0 -.25-.25h-1.5a.75.75 0 0 1 0-1.5h1.5a.25.25 0 0 0 .25-.25v-1.5a.75.75 0 0 1 1.5 0v1.5a.25.25 0 0 0 .25.25h1.5a.75.75 0 0 1 0 1.5h-1.5a.25.25 0 0 0 -.25.25z"/></svg>