<svg fill="none" height="175" width="188" xmlns="http://www.w3.org/2000/svg"><path d="m30.408 133.432 1.8-3.59-3.116-2.532a65.255 65.255 0 0 1 -24.092-49.587c.026-39.037 38.975-72.36 88.95-72.36 49.992 0 88.95 33.337 88.95 72.399 0 39.061-38.959 72.406-88.95 72.406h-.011a107.064 107.064 0 0 1 -29.792-4.16l-1.796-.516-1.694.789-47.862 22.276zm-18.79 37.472v.002z" stroke="#000" stroke-width="10"/><path d="m85.079 91.359-.049-2.827c-.162-2.307.033-4.37.585-6.19s1.495-3.46 2.827-4.923c1.365-1.495 3.152-2.892 5.362-4.192 2.112-1.267 3.752-2.42 4.922-3.46 1.203-1.04 2.047-2.129 2.535-3.266.487-1.137.731-2.47.731-3.997v-.048c0-1.593-.39-2.974-1.17-4.143-.78-1.203-1.868-2.145-3.266-2.827-1.364-.683-2.973-1.024-4.825-1.024s-3.477.374-4.874 1.121c-1.397.748-2.502 1.771-3.314 3.07-.813 1.3-1.268 2.795-1.365 4.485l-.049.39h-13.209v-.487c.13-3.802 1.121-7.198 2.974-10.187 1.884-3.022 4.565-5.394 8.042-7.117 3.477-1.722 7.7-2.583 12.672-2.583 4.647 0 8.693.796 12.137 2.388 3.477 1.593 6.174 3.802 8.091 6.63 1.95 2.826 2.925 6.108 2.925 9.845v.049c0 2.437-.39 4.646-1.17 6.629-.78 1.982-1.95 3.785-3.51 5.41-1.527 1.592-3.444 3.07-5.751 4.435-2.145 1.235-3.818 2.388-5.02 3.46-1.203 1.04-2.047 2.145-2.535 3.315-.487 1.137-.731 2.486-.731 4.046v1.998zm6.677 23.347c-2.21 0-4.094-.731-5.654-2.193-1.527-1.495-2.29-3.315-2.29-5.459 0-2.145.763-3.948 2.29-5.411 1.56-1.494 3.445-2.242 5.654-2.242 2.242 0 4.127.748 5.654 2.242 1.56 1.463 2.34 3.266 2.34 5.411 0 2.144-.78 3.964-2.34 5.459-1.527 1.462-3.412 2.193-5.654 2.193z" fill="#000"/></svg>