<svg enable-background="new 0 0 24 24" viewBox="0 0 24 24" xmlns="http://www.w3.org/2000/svg"><path d="m12 4.9.6.1c2.9.5 5 3.1 4.9 6v5c0 .5.1 1 .3 1.5h-11.6c.2-.5.3-1 .3-1.5v-4.9c-.1-3 2-5.5 4.9-6zm0-4.9c-.6 0-1 .4-1 1v2.1c-3.9.7-6.6 4.1-6.5 8.1v4.8c0 .8-.7 1.5-1.5 1.5-.6 0-1 .4-1 1s.4 1 1 1h18c.6 0 1-.4 1-1s-.4-1-1-1c-.8 0-1.5-.7-1.5-1.5v-4.9c.1-3.9-2.6-7.3-6.5-8.1v-2c0-.6-.4-1-1-1z"/><path d="m14.2 21h-4.5c-.1 0-.2.1-.2.2v.3c0 1.4 1.1 2.5 2.5 2.5s2.5-1.1 2.5-2.5c0-.1 0-.2 0-.3s-.1-.2-.3-.2z"/></svg>