<svg enable-background="new 0 0 24 24" viewBox="0 0 24 24" xmlns="http://www.w3.org/2000/svg"><path d="m17 20.5c0 .2 0 .3-.1.5.1-.1.1-.3.1-.5z"/><path d="m14.1 9.1c.1-.2.2-.3.3-.4-.1.1-.2.2-.3.4l-2.2 4.2z"/><path d="m14 6.6c.6-.3 1.2-.4 1.8-.4h.2c-1.2-1.6-3-2.7-5-3.1v-2.1c0-.6-.4-1-1-1s-1 .4-1 1v2.1c-3.9.7-6.6 4.1-6.5 8.1v4.8c0 .8-.7 1.5-1.5 1.5-.6 0-1 .4-1 1s.4 1 1 1h5.4l5.9-11.3c.4-.7 1-1.3 1.7-1.6z"/><path d="m23.8 21.3-6.4-12.2c0-.1-.1-.1-.1-.2s-.1-.1-.2-.2c0 0-.1-.1-.1-.1s-.1-.1-.1-.1c-.1 0-.1-.1-.2-.1 0 0-.1 0-.1-.1-.1-.1-.3-.1-.4-.2h-.1-.1c-.1 0-.2 0-.3 0s0 0-.1 0c0 0 0 0-.1 0h-.1c-.1 0-.1 0-.2 0h-.1c-.1 0-.3.1-.4.1-.3.2-.6.4-.8.8l-5.2 10.5-.8 1.5-.2.3c-.1.2-.1.4-.2.5-.1.4 0 .9.2 1.3.4.6 1 .9 1.6.9h.7 12.2c.6 0 1.2-.3 1.6-.9.3-.5.3-1.2 0-1.8zm-8.7-3.6c-.1-.1-.2-.2-.2-.3v-.1c0-.1-.1-.2-.1-.3v-3.2c0-.1 0-.2.1-.3v-.1c0-.1.1-.1.1-.2 0 0 0 0 .1-.1.2-.2.4-.3.6-.3.5 0 1 .4 1 1v3.2c0 .5-.4 1-1 1-.2 0-.4-.1-.6-.3zm.7 4.1c.4 0 .7-.1.9-.4-.3.2-.6.4-.9.4-.7 0-1.3-.6-1.3-1.3 0-.1 0-.3.1-.4 0-.1 0-.1.1-.1 0-.1.1-.1.1-.1.1-.1.2-.2.3-.3s.2-.1.3-.2c.1 0 .3-.1.4-.1.3 0 .5.1.7.3.3.2.5.6.5 1 0 .6-.5 1.2-1.2 1.2z"/></svg>