<svg viewBox="0 0 24 24" xmlns="http://www.w3.org/2000/svg"><path d="m2.649 16.4a.5.5 0 0 0 -.841.245l-1.414 6.365a.5.5 0 0 0 .134.462.509.509 0 0 0 .462.135l6.364-1.414a.5.5 0 0 0 .245-.842z"/><path d="m17.852 7.208-10.96 10.96a.252.252 0 0 0 0 .354l1.768 1.768a.507.507 0 0 0 .707 0l10.607-10.607a.5.5 0 0 0 0-.707l-1.768-1.768a.252.252 0 0 0 -.354 0z"/><path d="m16.792 5.794-1.768-1.767a.5.5 0 0 0 -.707 0l-10.607 10.606a.5.5 0 0 0 0 .707l1.768 1.768a.252.252 0 0 0 .354 0l10.96-10.96a.252.252 0 0 0 0-.354z"/><path d="m22.449 1.552a4.005 4.005 0 0 0 -5.658 0l-.707.707a.5.5 0 0 0 0 .707l4.95 4.949a.513.513 0 0 0 .707 0l.708-.707a4 4 0 0 0 0-5.656z"/></svg>