<svg enable-background="new 0 0 17 21.1" viewBox="0 0 17 21.1" xmlns="http://www.w3.org/2000/svg"><path d="m7.9 17c0-2.8 2.2-5 5-5 1.4 0 2.6.6 3.5 1.4 0-.2-.1-.3-.1-.5-.6-1.1-2.4-1.8-4.8-2.7l-.6-.2c-.2-.5-.3-1.1-.1-1.6 1.1-1.2 1.6-2.7 1.5-4.3 0-2.4-1.6-4.2-3.8-4.2s-3.8 1.9-3.8 4.3c-.1 1.5.4 3.1 1.5 4.3.2.5.2 1.1-.1 1.6l-.6.2c-2.4.9-4.2 1.5-4.8 2.6-.4 1.2-.7 5.4-.7 6.6 0 .3.2.5.5.5h8.5c-.7-.8-1.1-1.8-1.1-3z"/><path d="m12.9 12.9c-2.3 0-4.1 1.8-4.1 4.1s1.8 4.1 4.1 4.1 4.1-1.8 4.1-4.1-1.8-4.1-4.1-4.1zm2.8 4.1c0 .3-.3.6-.6.6h-1.4c-.1 0-.2.1-.2.2v1.4c0 .3-.3.6-.6.6s-.6-.3-.6-.6v-1.4c0-.1-.1-.2-.2-.2h-1.4c-.3 0-.6-.3-.6-.6s.3-.6.6-.6h1.4c.1 0 .2-.1.2-.2v-1.4c0-.3.3-.6.6-.6s.6.3.6.6v1.4c0 .1.1.2.2.2h1.4c.4 0 .6.3.6.6z"/></svg>