<svg viewBox="0 0 24 24" xmlns="http://www.w3.org/2000/svg"><path d="m20.5 9a2 2 0 0 0 -2-2h-3.25a.25.25 0 0 0 -.25.25v1.5a.25.25 0 0 0 .25.25h2.75a.5.5 0 0 1 .5.5v12a.5.5 0 0 1 -.5.5h-12a.5.5 0 0 1 -.5-.5v-12a.5.5 0 0 1 .5-.5h2.75a.25.25 0 0 0 .25-.251v-1.5a.25.25 0 0 0 -.252-.249h-3.248a2 2 0 0 0 -2 2v13a2 2 0 0 0 2 2h13a2 2 0 0 0 2-2z"/><path d="m10.5 11a1.5 1.5 0 0 0 3 0v-5.251a.25.25 0 0 1 .25-.25h1.75a1 1 0 0 0 .7-1.707l-3.5-3.5a1 1 0 0 0 -1.414 0l-3.5 3.5a1 1 0 0 0 .714 1.708h1.75a.25.25 0 0 1 .25.25z"/></svg>