<svg enable-background="new 0 0 24 24" viewBox="0 0 24 24" xmlns="http://www.w3.org/2000/svg"><path d="m17.2 14.4c.1-.8.2-1.6.2-2.4s-.1-1.6-.2-2.4h4.1c.2.8.3 1.6.3 2.4s-.1 1.6-.3 2.4m-6.2 6.7c.7-1.3 1.3-2.8 1.7-4.3h3.5c-1.1 2-3 3.5-5.2 4.3m-.3-6.7h-5.6c-.1-.8-.2-1.6-.2-2.4s.1-1.6.2-2.4h5.6c.1.8.2 1.6.2 2.4s-.1 1.6-.2 2.4m-2.8 7.2c-1-1.4-1.8-3-2.3-4.8h4.6c-.5 1.7-1.3 3.3-2.3 4.8m-4.8-14.4h-3.5c1.1-2 3-3.5 5.2-4.3-.7 1.4-1.3 2.8-1.7 4.3m-3.5 9.6h3.5c.4 1.5 1 2.9 1.7 4.3-2.2-.8-4.1-2.3-5.2-4.3m-1-2.4c-.2-.8-.3-1.6-.3-2.4s.1-1.6.3-2.4h4.1c-.1.8-.2 1.6-.2 2.4s.1 1.6.2 2.4m5.2-12c1 1.4 1.8 3 2.3 4.8h-4.6c.5-1.7 1.3-3.3 2.3-4.8m8.3 4.8h-3.5c-.4-1.5-.9-2.9-1.7-4.3 2.2.8 4.1 2.3 5.2 4.3m-8.3-7.2c-6.6 0-12 5.4-12 12s5.4 12 12 12 12-5.4 12-12-5.4-12-12-12z"/></svg>